# xmcd
#
# Track frame offsets:
#  150
#  14787
#  35507
#  51338
#  66641
#  90754
#  104527
#  119147
#  135939
#  147253
#  161732
#  178561
#  204553
#  220062
#  237875
#  260073
#  273462
#  293019
#  314485
#
# Disc length: 4432 seconds
#
# Revision: 0
# Processed by: cddbd v1.5.1PL0 Copyright (c) Steve Scherf et al.
# Submitted via: Collectorz.com Music Collector 6.9
#
DISCID=2a114e13
DTITLE=Various Artist - Honky Tonk 17
DYEAR=1900
DGENRE=
TTITLE0=Last Hombres - King of Memphis
TTITLE1=Last Hombres - It's Alright Norma
TTITLE2=Last Hombres - Jordan Town
TTITLE3=Vic Chesnutt - Girl's Say
TTITLE4=Vic Chesnutt - Fa-La-La
TTITLE5=Pat McLaughlin - Back Screen Door
TTITLE6=Pat McLaughlin - Hey Now Now
TTITLE7=Pat McLaughlin - Like I Love You
TTITLE8=Pat McLaughlin - Wrong Thing
TTITLE9=Slaid Cleaves - Monster in Law
TTITLE10=Slaid Cleaves - You're a Mean One, Mr Grinch
TTITLE11=Terry Clarke - Manhattan Blues
TTITLE12=Billy Bob Thornton - Angelina
TTITLE13=Billy Bob Thornton - Ring of Fire
TTITLE14=Cowboy Junkies - Misguided Angel (Live)
TTITLE15=Johnny Cash - The Chicken in Black
TTITLE16=Kevin Bloody Wilson - Santa Was Stoned
TTITLE17=Counting Crows - Mr Jones (Acoustic)
TTITLE18=Sheryl Crow - Wild Horses (Acoustic Piano)
EXTD=
EXTT0=
EXTT1=
EXTT2=
EXTT3=
EXTT4=
EXTT5=
EXTT6=
EXTT7=
EXTT8=
EXTT9=
EXTT10=
EXTT11=
EXTT12=
EXTT13=
EXTT14=
EXTT15=
EXTT16=
EXTT17=
EXTT18=
PLAYORDER=
